<svg width="48" height="48" viewBox="0 0 48 48" fill="none" xmlns="http://www.w3.org/2000/svg">
<g id="colorpicker-black-48" clip-path="url(#clip0_1294_1970)">
<g id="Rectangle 19">
<rect width="48" height="48" rx="4.8" fill="#312E2B"/>
<rect x="1" y="1" width="46" height="46" rx="3.8" stroke="white" stroke-opacity="0.1" stroke-width="2"/>
</g>
<path id="Vector" d="M32.1139 34.3599C32.8612 32.2316 33.8754 31.4867 35.21 30.1565C37.1317 28.241 39 26.0594 39 22.8138C39 19.1424 36.5445 15.6307 31.9004 15.6307C29.605 15.6307 27.79 16.482 26.4021 17.2801L25.9217 13H29V9H26V6H22V9H19V13H22.1851L21.5445 17.2801C20.1032 16.482 18.5018 15.6307 16.153 15.6307C11.5623 15.6307 9 18.9296 9 22.7605C9 26.0594 10.8683 28.3474 12.7367 30.1565C13.8577 31.2738 15.032 32.1784 15.8327 34.3599M12.7899 40H35.2099V38.4038C35.2099 35.2645 33.1281 33.5 24 33.5C14.8719 33.5 12.7899 35.2645 12.7899 38.4038V40ZM27 28V22.867C27 22.867 28.4305 21.324 30.2988 21.324C31.6867 21.324 32.4874 22.3881 32.4874 23.3991C32.4874 25.3678 29.4981 27.4147 29.0177 28H27ZM21 28H18.9821C18.5017 27.4147 15.5124 25.3678 15.5124 23.3991C15.5124 22.3881 16.3131 21.324 17.7544 21.324C19.5693 21.324 21 22.867 21 22.867V28Z" stroke="#8B8987" stroke-width="2"/>
</g>
<defs>
<clipPath id="clip0_1294_1970">
<rect width="48" height="48" fill="white"/>
</clipPath>
</defs>
</svg>
