<svg width="48" height="48" viewBox="0 0 48 48" fill="none" xmlns="http://www.w3.org/2000/svg">
<g id="colorpicker-white-48">
<g id="Rectangle 19">
<rect width="48" height="48" rx="4.8" fill="#E7E6E5"/>
<rect x="1" y="1" width="46" height="46" rx="3.8" stroke="black" stroke-opacity="0.1" stroke-width="2"/>
</g>
<path id="Vector" d="M32.1139 34.36C32.8612 32.2316 33.8755 31.4867 35.21 30.1565C37.1317 28.241 39 26.0595 39 22.8138C39 19.1424 36.5445 15.6307 31.9004 15.6307C29.605 15.6307 27.7901 16.482 26.4022 17.2802L25.9217 13H29V9.00005H26V6.00005H22V9.00005H19V13H22.1851L21.5445 17.2802C20.1032 16.482 18.5018 15.6307 16.1531 15.6307C11.5623 15.6307 9.00002 18.9296 9.00002 22.7606C9.00002 26.0595 10.8684 28.3474 12.7367 30.1565C13.8577 31.2739 15.0321 32.1784 15.8328 34.36M12.79 40H35.2099V38.4038C35.2099 35.2645 33.1281 33.5 24 33.5C14.8719 33.5 12.79 35.2645 12.79 38.4038V40ZM27 28V22.8671C27 22.8671 28.4305 21.324 30.2989 21.324C31.6868 21.324 32.4875 22.3882 32.4875 23.3991C32.4875 25.3678 29.4982 27.4148 29.0177 28H27ZM21 28H18.9821C18.5017 27.4148 15.5124 25.3678 15.5124 23.3991C15.5124 22.3882 16.3131 21.324 17.7544 21.324C19.5693 21.324 21 22.8671 21 22.8671V28Z" stroke="#8B8987" stroke-width="2"/>
</g>
</svg>
